<mxfile host="app.diagrams.net" modified="2023-08-09T10:19:12.474Z" agent="Mozilla/5.0 (Windows NT 10.0; Win64; x64) AppleWebKit/537.36 (KHTML, like Gecko) Chrome/115.0.0.0 Safari/537.36" etag="eA7CJCqQVY5Oo0NWOUc-" version="21.6.7" type="device">
  <diagram name="Pagina-1" id="-AscqF2P0INnX2WkudZT">
    <mxGraphModel dx="1434" dy="816" grid="1" gridSize="10" guides="1" tooltips="1" connect="1" arrows="1" fold="1" page="1" pageScale="1" pageWidth="1169" pageHeight="827" background="#ffffff" math="0" shadow="0">
      <root>
        <mxCell id="0" />
        <mxCell id="1" parent="0" />
        <mxCell id="3w6smhPN64hNr4UrGpXy-1" value="Amministratore di sistema&lt;br&gt;" style="shape=umlActor;verticalLabelPosition=bottom;verticalAlign=top;html=1;outlineConnect=0;" vertex="1" parent="1">
          <mxGeometry x="170" y="299" width="30" height="60" as="geometry" />
        </mxCell>
        <mxCell id="3w6smhPN64hNr4UrGpXy-2" value="Proprietario" style="shape=umlActor;verticalLabelPosition=bottom;verticalAlign=top;html=1;outlineConnect=0;" vertex="1" parent="1">
          <mxGeometry x="970" y="299" width="30" height="60" as="geometry" />
        </mxCell>
        <mxCell id="3w6smhPN64hNr4UrGpXy-3" value="Cliente" style="shape=umlActor;verticalLabelPosition=bottom;verticalAlign=top;html=1;outlineConnect=0;direction=east;" vertex="1" parent="1">
          <mxGeometry x="570" y="299" width="30" height="60" as="geometry" />
        </mxCell>
        <mxCell id="3w6smhPN64hNr4UrGpXy-5" value="Registrazione" style="ellipse;whiteSpace=wrap;html=1;" vertex="1" parent="1">
          <mxGeometry x="560" y="10" width="120" height="80" as="geometry" />
        </mxCell>
        <mxCell id="3w6smhPN64hNr4UrGpXy-6" value="Login" style="ellipse;whiteSpace=wrap;html=1;" vertex="1" parent="1">
          <mxGeometry x="645" y="210" width="120" height="80" as="geometry" />
        </mxCell>
        <mxCell id="3w6smhPN64hNr4UrGpXy-7" value="Ricerca prodotti" style="ellipse;whiteSpace=wrap;html=1;" vertex="1" parent="1">
          <mxGeometry x="730" y="600" width="120" height="80" as="geometry" />
        </mxCell>
        <mxCell id="3w6smhPN64hNr4UrGpXy-8" value="Ordine prodotti" style="ellipse;whiteSpace=wrap;html=1;" vertex="1" parent="1">
          <mxGeometry x="525" y="640" width="120" height="80" as="geometry" />
        </mxCell>
        <mxCell id="3w6smhPN64hNr4UrGpXy-9" value="Visualizzazione calendario" style="ellipse;whiteSpace=wrap;html=1;" vertex="1" parent="1">
          <mxGeometry x="730" y="480" width="120" height="80" as="geometry" />
        </mxCell>
        <mxCell id="3w6smhPN64hNr4UrGpXy-11" value="Gestione articoli" style="ellipse;whiteSpace=wrap;html=1;" vertex="1" parent="1">
          <mxGeometry x="925" y="640" width="120" height="80" as="geometry" />
        </mxCell>
        <mxCell id="3w6smhPN64hNr4UrGpXy-12" value="Visualizzazione storico" style="ellipse;whiteSpace=wrap;html=1;" vertex="1" parent="1">
          <mxGeometry x="1030" y="550" width="120" height="80" as="geometry" />
        </mxCell>
        <mxCell id="3w6smhPN64hNr4UrGpXy-13" value="Gestione utenti" style="ellipse;whiteSpace=wrap;html=1;" vertex="1" parent="1">
          <mxGeometry x="125" y="640" width="120" height="80" as="geometry" />
        </mxCell>
        <mxCell id="3w6smhPN64hNr4UrGpXy-16" value="Utente&lt;br&gt;" style="shape=umlActor;verticalLabelPosition=bottom;verticalAlign=top;html=1;outlineConnect=0;" vertex="1" parent="1">
          <mxGeometry x="370" y="20" width="30" height="60" as="geometry" />
        </mxCell>
        <mxCell id="3w6smhPN64hNr4UrGpXy-26" value="Gestione amministratore" style="ellipse;whiteSpace=wrap;html=1;" vertex="1" parent="1">
          <mxGeometry x="125" y="430" width="120" height="80" as="geometry" />
        </mxCell>
        <mxCell id="3w6smhPN64hNr4UrGpXy-27" value="Gestione proprietario" style="ellipse;whiteSpace=wrap;html=1;" vertex="1" parent="1">
          <mxGeometry x="925" y="430" width="120" height="80" as="geometry" />
        </mxCell>
        <mxCell id="3w6smhPN64hNr4UrGpXy-28" value="Gestione cliente" style="ellipse;whiteSpace=wrap;html=1;" vertex="1" parent="1">
          <mxGeometry x="525" y="430" width="120" height="80" as="geometry" />
        </mxCell>
        <mxCell id="3w6smhPN64hNr4UrGpXy-30" value="" style="endArrow=block;html=1;endFill=0;edgeStyle=elbowEdgeStyle;elbow=vertical;rounded=0;entryX=0.5;entryY=0;entryDx=0;entryDy=0;entryPerimeter=0;" edge="1" parent="1" source="3w6smhPN64hNr4UrGpXy-16" target="3w6smhPN64hNr4UrGpXy-1">
          <mxGeometry width="160" relative="1" as="geometry">
            <mxPoint x="490" y="430" as="sourcePoint" />
            <mxPoint x="640" y="410" as="targetPoint" />
          </mxGeometry>
        </mxCell>
        <mxCell id="3w6smhPN64hNr4UrGpXy-31" value="" style="endArrow=block;html=1;endFill=0;edgeStyle=elbowEdgeStyle;elbow=vertical;rounded=0;" edge="1" parent="1" source="3w6smhPN64hNr4UrGpXy-16" target="3w6smhPN64hNr4UrGpXy-3">
          <mxGeometry width="160" relative="1" as="geometry">
            <mxPoint x="490" y="420" as="sourcePoint" />
            <mxPoint x="650" y="420" as="targetPoint" />
          </mxGeometry>
        </mxCell>
        <mxCell id="3w6smhPN64hNr4UrGpXy-32" value="" style="endArrow=block;html=1;endFill=0;edgeStyle=elbowEdgeStyle;elbow=vertical;rounded=0;entryX=0.5;entryY=0;entryDx=0;entryDy=0;entryPerimeter=0;" edge="1" parent="1" source="3w6smhPN64hNr4UrGpXy-16" target="3w6smhPN64hNr4UrGpXy-2">
          <mxGeometry width="160" relative="1" as="geometry">
            <mxPoint x="490" y="430" as="sourcePoint" />
            <mxPoint x="660" y="469.5" as="targetPoint" />
          </mxGeometry>
        </mxCell>
        <mxCell id="3w6smhPN64hNr4UrGpXy-33" value="" style="endArrow=none;html=1;rounded=0;entryX=0.5;entryY=0.5;entryDx=0;entryDy=0;entryPerimeter=0;exitX=0;exitY=0.5;exitDx=0;exitDy=0;" edge="1" parent="1" source="3w6smhPN64hNr4UrGpXy-5" target="3w6smhPN64hNr4UrGpXy-16">
          <mxGeometry width="50" height="50" relative="1" as="geometry">
            <mxPoint x="550" y="80" as="sourcePoint" />
            <mxPoint x="590" y="390" as="targetPoint" />
          </mxGeometry>
        </mxCell>
        <mxCell id="3w6smhPN64hNr4UrGpXy-35" value="" style="endArrow=none;html=1;rounded=0;exitX=0.5;exitY=0;exitDx=0;exitDy=0;" edge="1" parent="1" source="3w6smhPN64hNr4UrGpXy-26" target="3w6smhPN64hNr4UrGpXy-1">
          <mxGeometry width="50" height="50" relative="1" as="geometry">
            <mxPoint x="325" y="414" as="sourcePoint" />
            <mxPoint x="190" y="390" as="targetPoint" />
          </mxGeometry>
        </mxCell>
        <mxCell id="3w6smhPN64hNr4UrGpXy-36" value="" style="endArrow=none;html=1;rounded=0;exitX=0.5;exitY=0;exitDx=0;exitDy=0;" edge="1" parent="1" source="3w6smhPN64hNr4UrGpXy-28" target="3w6smhPN64hNr4UrGpXy-3">
          <mxGeometry width="50" height="50" relative="1" as="geometry">
            <mxPoint x="520" y="430" as="sourcePoint" />
            <mxPoint x="584" y="389" as="targetPoint" />
          </mxGeometry>
        </mxCell>
        <mxCell id="3w6smhPN64hNr4UrGpXy-37" value="" style="endArrow=none;html=1;rounded=0;exitX=0.5;exitY=0;exitDx=0;exitDy=0;" edge="1" parent="1" source="3w6smhPN64hNr4UrGpXy-27" target="3w6smhPN64hNr4UrGpXy-2">
          <mxGeometry width="50" height="50" relative="1" as="geometry">
            <mxPoint x="195" y="440" as="sourcePoint" />
            <mxPoint x="195" y="369" as="targetPoint" />
          </mxGeometry>
        </mxCell>
        <mxCell id="3w6smhPN64hNr4UrGpXy-38" value="&amp;lt;&amp;lt;extend&amp;gt;&amp;gt;" style="html=1;verticalAlign=bottom;labelBackgroundColor=none;endArrow=open;endFill=0;dashed=1;rounded=0;exitX=0.5;exitY=0;exitDx=0;exitDy=0;entryX=0.5;entryY=1;entryDx=0;entryDy=0;" edge="1" parent="1" source="3w6smhPN64hNr4UrGpXy-13" target="3w6smhPN64hNr4UrGpXy-26">
          <mxGeometry width="160" relative="1" as="geometry">
            <mxPoint x="340" y="380" as="sourcePoint" />
            <mxPoint x="270" y="600" as="targetPoint" />
          </mxGeometry>
        </mxCell>
        <mxCell id="3w6smhPN64hNr4UrGpXy-39" value="&amp;lt;&amp;lt;extend&amp;gt;&amp;gt;" style="html=1;verticalAlign=bottom;labelBackgroundColor=none;endArrow=open;endFill=0;dashed=1;rounded=0;exitX=0.5;exitY=0;exitDx=0;exitDy=0;entryX=0.5;entryY=1;entryDx=0;entryDy=0;" edge="1" parent="1" source="3w6smhPN64hNr4UrGpXy-8" target="3w6smhPN64hNr4UrGpXy-28">
          <mxGeometry width="160" relative="1" as="geometry">
            <mxPoint x="450" y="510" as="sourcePoint" />
            <mxPoint x="480" y="560" as="targetPoint" />
          </mxGeometry>
        </mxCell>
        <mxCell id="3w6smhPN64hNr4UrGpXy-40" value="&amp;lt;&amp;lt;extend&amp;gt;&amp;gt;" style="html=1;verticalAlign=bottom;labelBackgroundColor=none;endArrow=open;endFill=0;dashed=1;rounded=0;entryX=0.5;entryY=1;entryDx=0;entryDy=0;exitX=0.5;exitY=0;exitDx=0;exitDy=0;" edge="1" parent="1" source="3w6smhPN64hNr4UrGpXy-11" target="3w6smhPN64hNr4UrGpXy-27">
          <mxGeometry width="160" relative="1" as="geometry">
            <mxPoint x="950" y="590" as="sourcePoint" />
            <mxPoint x="950" y="650" as="targetPoint" />
          </mxGeometry>
        </mxCell>
        <mxCell id="3w6smhPN64hNr4UrGpXy-42" value="&amp;lt;&amp;lt;extend&amp;gt;&amp;gt;" style="html=1;verticalAlign=bottom;labelBackgroundColor=none;endArrow=open;endFill=0;dashed=1;rounded=0;exitX=0.292;exitY=0.025;exitDx=0;exitDy=0;exitPerimeter=0;" edge="1" parent="1" source="3w6smhPN64hNr4UrGpXy-12" target="3w6smhPN64hNr4UrGpXy-27">
          <mxGeometry width="160" relative="1" as="geometry">
            <mxPoint x="1089.5" y="560" as="sourcePoint" />
            <mxPoint x="1089.5" y="500" as="targetPoint" />
          </mxGeometry>
        </mxCell>
        <mxCell id="3w6smhPN64hNr4UrGpXy-43" value="&amp;lt;&amp;lt;extend&amp;gt;&amp;gt;" style="html=1;verticalAlign=bottom;labelBackgroundColor=none;endArrow=open;endFill=0;dashed=1;rounded=0;exitX=0;exitY=0;exitDx=0;exitDy=0;entryX=1;entryY=1;entryDx=0;entryDy=0;" edge="1" parent="1" source="3w6smhPN64hNr4UrGpXy-7" target="3w6smhPN64hNr4UrGpXy-28">
          <mxGeometry width="160" relative="1" as="geometry">
            <mxPoint x="687.5735931288073" y="571.7157287525383" as="sourcePoint" />
            <mxPoint x="640" y="540" as="targetPoint" />
          </mxGeometry>
        </mxCell>
        <mxCell id="3w6smhPN64hNr4UrGpXy-45" value="&amp;lt;&amp;lt;extend&amp;gt;&amp;gt;" style="html=1;verticalAlign=bottom;labelBackgroundColor=none;endArrow=open;endFill=0;dashed=1;rounded=0;entryX=0;entryY=0.5;entryDx=0;entryDy=0;exitX=1;exitY=0;exitDx=0;exitDy=0;" edge="1" parent="1" source="3w6smhPN64hNr4UrGpXy-9" target="3w6smhPN64hNr4UrGpXy-27">
          <mxGeometry width="160" relative="1" as="geometry">
            <mxPoint x="870" y="450" as="sourcePoint" />
            <mxPoint x="758" y="572" as="targetPoint" />
          </mxGeometry>
        </mxCell>
        <mxCell id="3w6smhPN64hNr4UrGpXy-46" value="&amp;lt;&amp;lt;extend&amp;gt;&amp;gt;" style="html=1;verticalAlign=bottom;labelBackgroundColor=none;endArrow=open;endFill=0;dashed=1;rounded=0;entryX=0;entryY=1;entryDx=0;entryDy=0;exitX=1;exitY=0;exitDx=0;exitDy=0;" edge="1" parent="1" source="3w6smhPN64hNr4UrGpXy-7" target="3w6smhPN64hNr4UrGpXy-27">
          <mxGeometry width="160" relative="1" as="geometry">
            <mxPoint x="930" y="550" as="sourcePoint" />
            <mxPoint x="758" y="672" as="targetPoint" />
          </mxGeometry>
        </mxCell>
        <mxCell id="3w6smhPN64hNr4UrGpXy-48" value="&amp;lt;&amp;lt;include&amp;gt;&amp;gt;" style="html=1;verticalAlign=bottom;labelBackgroundColor=none;endArrow=open;endFill=0;dashed=1;rounded=0;exitX=1;exitY=0;exitDx=0;exitDy=0;entryX=0;entryY=0.5;entryDx=0;entryDy=0;" edge="1" parent="1" source="3w6smhPN64hNr4UrGpXy-26" target="3w6smhPN64hNr4UrGpXy-6">
          <mxGeometry width="160" relative="1" as="geometry">
            <mxPoint x="280" y="460" as="sourcePoint" />
            <mxPoint x="440" y="460" as="targetPoint" />
          </mxGeometry>
        </mxCell>
        <mxCell id="3w6smhPN64hNr4UrGpXy-49" value="&amp;lt;&amp;lt;include&amp;gt;&amp;gt;" style="html=1;verticalAlign=bottom;labelBackgroundColor=none;endArrow=open;endFill=0;dashed=1;rounded=0;exitX=1;exitY=0;exitDx=0;exitDy=0;entryX=0;entryY=1;entryDx=0;entryDy=0;" edge="1" parent="1" source="3w6smhPN64hNr4UrGpXy-28" target="3w6smhPN64hNr4UrGpXy-6">
          <mxGeometry width="160" relative="1" as="geometry">
            <mxPoint x="255" y="480" as="sourcePoint" />
            <mxPoint x="740" y="339" as="targetPoint" />
          </mxGeometry>
        </mxCell>
        <mxCell id="3w6smhPN64hNr4UrGpXy-50" value="&amp;lt;&amp;lt;include&amp;gt;&amp;gt;" style="html=1;verticalAlign=bottom;labelBackgroundColor=none;endArrow=open;endFill=0;dashed=1;rounded=0;exitX=0;exitY=0;exitDx=0;exitDy=0;entryX=1;entryY=1;entryDx=0;entryDy=0;" edge="1" parent="1" source="3w6smhPN64hNr4UrGpXy-27" target="3w6smhPN64hNr4UrGpXy-6">
          <mxGeometry width="160" relative="1" as="geometry">
            <mxPoint x="637" y="452" as="sourcePoint" />
            <mxPoint x="758" y="367" as="targetPoint" />
          </mxGeometry>
        </mxCell>
        <mxCell id="3w6smhPN64hNr4UrGpXy-51" value="&amp;lt;&amp;lt;extend&amp;gt;&amp;gt;" style="html=1;verticalAlign=bottom;labelBackgroundColor=none;endArrow=open;endFill=0;dashed=1;rounded=0;exitX=0;exitY=0;exitDx=0;exitDy=0;entryX=1;entryY=0.5;entryDx=0;entryDy=0;" edge="1" parent="1" source="3w6smhPN64hNr4UrGpXy-9" target="3w6smhPN64hNr4UrGpXy-28">
          <mxGeometry width="160" relative="1" as="geometry">
            <mxPoint x="758" y="672" as="sourcePoint" />
            <mxPoint x="637" y="508" as="targetPoint" />
          </mxGeometry>
        </mxCell>
        <mxCell id="3w6smhPN64hNr4UrGpXy-52" value="&amp;lt;&amp;lt;extend&amp;gt;&amp;gt;" style="html=1;verticalAlign=bottom;labelBackgroundColor=none;endArrow=open;endFill=0;dashed=1;rounded=0;exitX=0.5;exitY=1;exitDx=0;exitDy=0;entryX=0;entryY=0;entryDx=0;entryDy=0;" edge="1" parent="1" source="3w6smhPN64hNr4UrGpXy-5" target="3w6smhPN64hNr4UrGpXy-6">
          <mxGeometry width="160" relative="1" as="geometry">
            <mxPoint x="1073" y="72" as="sourcePoint" />
            <mxPoint x="970" y="50" as="targetPoint" />
          </mxGeometry>
        </mxCell>
      </root>
    </mxGraphModel>
  </diagram>
</mxfile>
